<?xml version="1.0" encoding="UTF-8"?>
<!DOCTYPE svg PUBLIC "-//W3C//DTD SVG 1.1//EN" "http://www.w3.org/Graphics/SVG/1.1/DTD/svg11.dtd">
<svg xmlns="http://www.w3.org/2000/svg" xmlns:xlink="http://www.w3.org/1999/xlink" version="1.1" width="227px" height="197px" viewBox="-0.5 -0.5 227 197" class="ge-export-svg-dark"><defs><style type="text/css">svg.ge-export-svg-dark &gt; * { filter: invert(100%) hue-rotate(180deg); }&#xa;svg.ge-export-svg-dark image { filter: invert(100%) hue-rotate(180deg) }</style></defs><g><path d="M 83 48 L 143 48 L 163 98 L 143 148 L 83 148 L 63 98 Z" fill="none" stroke="rgb(0, 0, 0)" stroke-width="3" stroke-miterlimit="10" transform="rotate(90,113,98)" pointer-events="all"/><path d="M 8 98 L 54.76 98" fill="none" stroke="rgb(0, 0, 0)" stroke-width="2" stroke-miterlimit="10" pointer-events="stroke"/><path d="M 60.76 98 L 52.76 102 L 54.76 98 L 52.76 94 Z" fill="rgb(0, 0, 0)" stroke="rgb(0, 0, 0)" stroke-width="2" stroke-miterlimit="10" pointer-events="all"/><path d="M 68 8 L 84.94 50.35" fill="none" stroke="rgb(0, 0, 0)" stroke-width="2" stroke-miterlimit="10" pointer-events="stroke"/><path d="M 87.17 55.92 L 80.48 49.98 L 84.94 50.35 L 87.91 47.01 Z" fill="rgb(0, 0, 0)" stroke="rgb(0, 0, 0)" stroke-width="2" stroke-miterlimit="10" pointer-events="all"/><path d="M 68 188 L 84.82 146.34" fill="none" stroke="rgb(0, 0, 0)" stroke-width="2" stroke-miterlimit="10" pointer-events="stroke"/><path d="M 87.06 140.77 L 87.78 149.69 L 84.82 146.34 L 80.36 146.69 Z" fill="rgb(0, 0, 0)" stroke="rgb(0, 0, 0)" stroke-width="2" stroke-miterlimit="10" pointer-events="all"/><path d="M 158 188 L 141.73 146.96" fill="none" stroke="rgb(0, 0, 0)" stroke-width="2" stroke-miterlimit="10" pointer-events="stroke"/><path d="M 139.52 141.38 L 146.19 147.34 L 141.73 146.96 L 138.75 150.29 Z" fill="rgb(0, 0, 0)" stroke="rgb(0, 0, 0)" stroke-width="2" stroke-miterlimit="10" pointer-events="all"/><path d="M 168 8 L 142.78 52.15" fill="none" stroke="rgb(0, 0, 0)" stroke-width="2" stroke-miterlimit="10" pointer-events="stroke"/><path d="M 139.81 57.36 L 140.3 48.43 L 142.78 52.15 L 147.25 52.4 Z" fill="rgb(0, 0, 0)" stroke="rgb(0, 0, 0)" stroke-width="2" stroke-miterlimit="10" pointer-events="all"/><path d="M 218 98 L 171.24 98" fill="none" stroke="rgb(0, 0, 0)" stroke-width="2" stroke-miterlimit="10" pointer-events="stroke"/><path d="M 165.24 98 L 173.24 94 L 171.24 98 L 173.24 102 Z" fill="rgb(0, 0, 0)" stroke="rgb(0, 0, 0)" stroke-width="2" stroke-miterlimit="10" pointer-events="all"/></g></svg>