<?xml version="1.0" encoding="UTF-8"?>
<!DOCTYPE svg PUBLIC "-//W3C//DTD SVG 1.1//EN" "http://www.w3.org/Graphics/SVG/1.1/DTD/svg11.dtd">
<svg xmlns="http://www.w3.org/2000/svg" xmlns:xlink="http://www.w3.org/1999/xlink" version="1.1" width="392px" height="202px" viewBox="-0.5 -0.5 392 202" class="ge-export-svg-dark"><defs><style type="text/css">svg.ge-export-svg-dark &gt; * { filter: invert(100%) hue-rotate(180deg); }&#xa;svg.ge-export-svg-dark image { filter: invert(100%) hue-rotate(180deg) }</style></defs><g><path d="M 80 40 L 153.63 40" fill="none" stroke="rgb(0, 0, 0)" stroke-miterlimit="10" pointer-events="stroke"/><path d="M 158.88 40 L 151.88 43.5 L 153.63 40 L 151.88 36.5 Z" fill="rgb(0, 0, 0)" stroke="rgb(0, 0, 0)" stroke-miterlimit="10" pointer-events="all"/><rect x="0" y="0" width="80" height="80" fill="none" stroke="rgb(0, 0, 0)" stroke-width="2" pointer-events="all"/><path d="M 240 40 L 275 40 L 275 100 L 303.63 100" fill="none" stroke="rgb(0, 0, 0)" stroke-miterlimit="10" pointer-events="stroke"/><path d="M 308.88 100 L 301.88 103.5 L 303.63 100 L 301.88 96.5 Z" fill="rgb(0, 0, 0)" stroke="rgb(0, 0, 0)" stroke-miterlimit="10" pointer-events="all"/><rect x="160" y="0" width="80" height="80" fill="none" stroke="rgb(0, 0, 0)" stroke-width="2" pointer-events="all"/><rect x="310" y="60" width="80" height="80" fill="none" stroke="rgb(0, 0, 0)" stroke-width="2" pointer-events="all"/><path d="M 80 160 L 153.63 160" fill="none" stroke="rgb(0, 0, 0)" stroke-miterlimit="10" pointer-events="stroke"/><path d="M 158.88 160 L 151.88 163.5 L 153.63 160 L 151.88 156.5 Z" fill="rgb(0, 0, 0)" stroke="rgb(0, 0, 0)" stroke-miterlimit="10" pointer-events="all"/><rect x="0" y="120" width="80" height="80" fill="none" stroke="rgb(0, 0, 0)" stroke-width="2" pointer-events="all"/><path d="M 240 160 L 275 160 L 275 100 L 303.63 100" fill="none" stroke="rgb(0, 0, 0)" stroke-miterlimit="10" pointer-events="stroke"/><path d="M 308.88 100 L 301.88 103.5 L 303.63 100 L 301.88 96.5 Z" fill="rgb(0, 0, 0)" stroke="rgb(0, 0, 0)" stroke-miterlimit="10" pointer-events="all"/><rect x="160" y="120" width="80" height="80" fill="none" stroke="rgb(0, 0, 0)" stroke-width="2" pointer-events="all"/></g></svg>